<svg xmlns="http://www.w3.org/2000/svg" width="206" height="125"><g fill="none" fill-rule="evenodd"><path fill="#BABAB9" d="M0 0h206v125H0z"></path><path fill="#FFF" d="M88.008 53.524v2.992c-1.848.572-3.916.968-6.116.968-6.292 0-11.22-3.388-11.22-11.88 0-5.456 2.772-10.032 9.592-10.032 6.292 0 7.964 3.784 7.964 7.656h-5.192c0-2.024-.528-4.224-3.168-4.224-2.684 0-4.004 2.552-4.004 5.72 0 4.268 2.288 9.328 8.624 9.328 1.408 0 2.508-.176 3.52-.528ZM92.092 57V26.64h4.884V57zm22.124 0v-2.42h-.088c-.66 1.364-2.112 2.904-5.456 2.904-3.52 0-6.16-2.112-6.16-5.5 0-6.952 8.8-6.996 11.704-7.084v-2.068c0-2.068-.528-3.828-2.948-3.828-2.684 0-3.212 1.804-3.212 3.212h-4.752c0-4.004 2.64-6.644 7.964-6.644 5.192 0 7.612 2.244 7.612 6.512V57h-4.664Zm-6.952-5.456c0 1.628.924 2.508 2.596 2.508 3.168 0 4.356-3.432 4.356-6.292-3.168 0-6.952.968-6.952 3.784ZM136.956 57v-3.916h-.088c-.66 1.584-2.376 4.4-6.204 4.4-3.08 0-5.676-2.112-5.676-6.908v-14.52h4.884v11.968c0 4.268.44 4.884 2.156 4.884 3.256 0 4.928-4.444 4.928-7.788v-9.064h4.884V57h-4.884Zm22.432 0v-2.904h-.088c-.44 1.188-2.596 3.388-5.236 3.388-5.588 0-7.172-5.104-7.172-10.956 0-6.072 2.156-10.956 7.172-10.956 3.124 0 4.62 1.936 5.236 2.992h.088V26.64h4.884V57h-4.884Zm-7.304-10.472c0 3.3.528 7.172 3.608 7.172 2.728 0 3.696-3.828 3.696-7.172 0-3.872-.88-7.172-3.696-7.172-3.212 0-3.608 3.696-3.608 7.172ZM170.688 57V36.056h4.884V57zm0-25.52v-4.84h4.884v4.84zM192.812 57v-2.42h-.088c-.66 1.364-2.112 2.904-5.456 2.904-3.52 0-6.16-2.112-6.16-5.5 0-6.952 8.8-6.996 11.704-7.084v-2.068c0-2.068-.528-3.828-2.948-3.828-2.684 0-3.212 1.804-3.212 3.212H181.9c0-4.004 2.64-6.644 7.964-6.644 5.192 0 7.612 2.244 7.612 6.512V57h-4.664Zm-6.952-5.456c0 1.628.924 2.508 2.596 2.508 3.168 0 4.356-3.432 4.356-6.292-3.168 0-6.952.968-6.952 3.784ZM74 94.36V64h4.884v13.332h.088c.66-1.584 2.332-4.4 6.204-4.4 3.08 0 5.676 2.112 5.676 6.908v14.52h-4.884V82.392c0-4.268-.44-4.884-2.156-4.884-3.3 0-4.928 4.488-4.928 7.788v9.064H74Zm35.7.484c-6.028 0-9.24-4.092-9.24-10.956s3.212-10.956 9.24-10.956c6.028 0 9.24 4.092 9.24 10.956s-3.212 10.956-9.24 10.956Zm-4.048-10.956c0 3.916.528 7.524 4.048 7.524s4.048-3.608 4.048-7.524-.528-7.524-4.048-7.524-4.048 3.608-4.048 7.524Zm22.852 19.888v-30.36h4.884v2.904h.088c.484-1.188 2.552-3.388 5.192-3.388 5.588 0 7.216 5.104 7.216 10.956 0 6.072-2.156 10.956-7.216 10.956-3.036 0-4.532-1.936-5.192-2.992h-.088v11.924h-4.884Zm4.884-19.888c0 3.872.88 7.172 3.652 7.172 3.256 0 3.652-3.696 3.652-7.172 0-3.3-.528-7.172-3.652-7.172-2.684 0-3.652 3.872-3.652 7.172Zm22.016 19.888v-30.36h4.884v2.904h.088c.484-1.188 2.552-3.388 5.192-3.388 5.588 0 7.216 5.104 7.216 10.956 0 6.072-2.156 10.956-7.216 10.956-3.036 0-4.532-1.936-5.192-2.992h-.088v11.924h-4.884Zm4.884-19.888c0 3.872.88 7.172 3.652 7.172 3.256 0 3.652-3.696 3.652-7.172 0-3.3-.528-7.172-3.652-7.172-2.684 0-3.652 3.872-3.652 7.172Zm37.284 6.732v3.388c-1.76.572-3.608.836-5.852.836-6.776 0-10.56-4.356-10.56-12.056 0-5.852 2.64-9.856 8.976-9.856 5.324 0 7.964 3.388 7.964 8.492v1.188h-12.408c0 2.904 1.98 8.8 7.876 8.8 1.54 0 3.124-.484 4.004-.792Zm-11.748-10.956h7.656c0-1.32-.66-3.608-3.696-3.608-2.86 0-3.828 2.376-3.96 3.608Z"></path></g></svg>