<svg xmlns="http://www.w3.org/2000/svg" xml:space="preserve" style="enable-background:new 0 0 4170 1332" viewBox="0 0 4170 1332"><path d="M1881.2 361.9v-266h-72.5V74.5H2044v21.4h-72.6v578.4h72.6v21.4h-235.3v-21.4h72.5V388.8h-267.8v285.5h72.6v21.4h-235.3v-21.4h72.5V95.9h-72.5V74.5H1686v21.4h-72.6v266zm544-266h-71.6V74.5h249.2c175.7 0 290.1 119 290.1 305 0 107.9-40.9 188.8-96.7 248.3-59.5 61.4-146.9 67.9-195.3 67.9h-247.4v-21.4h71.6l.1-578.4zm90.2 578.4h91.1c107.9-.9 142.3-56.7 161.8-97.6 18.6-42.8 22.3-124.6 22.3-213.9 0-132-13-266.9-205.5-266.9h-69.8l.1 578.4zm-292.2 102.4h-25.9V0h25.9zM215.3 1158.2v-133H179v-10.7h117.6v10.7h-36.2v289.2h36.2v10.7H179v-10.7h36.3v-142.8H81.4v142.8h36.2v10.7H0v-10.7h36.3v-289.2H0v-10.7h117.6v10.7H81.4v133zm114.8 166.9v-10.7H371v-289.2h-40.9v-10.7h235.7v75.8h-10.2c-7.9-55.3-36.7-65.1-79-65.1h-60.4v133.9c47 0 61.8-.5 68.3-49.7h10.2V1227h-10.2c-2.8-49.7-22.3-55.8-68.3-56.3v143.7h56.3c61.4 0 81.8-7.4 93.9-76.2h12.1l-6 86.9H330.1zm324.1-299.9h-36.3v-10.7h90.7l132 225h.9v-214.3h-36.2v-10.7h86v10.7h-35.8V1332h-12.1L669 1034.5h-.9v279.9h35.8v10.7h-86v-10.7h36.3zm275.2 299.9v-10.7h35.8v-289.2h-35.8v-10.7h137.2c89.3 0 102.7 47 102.7 67.9 0 60.9-53.5 72.5-97.2 76.2v.9c53.5 13.5 89.7 33 85.6 106.5-1.4 22.3 1.4 43.2 11.6 47.9 8.8 6 26 3.3 41.4-2.3v11.6c-15.8 5.6-29.3 8.4-41.4 8.8-33 .5-51.6-17.2-57.7-39-2.3-8.4-5.1-46-8.4-73.9-2.3-21.4-6.5-56.3-65.1-56.3h-27.9v151.6h36.7v10.7H929.4zm80.9-173h25.1c51.1 0 83.2-4.2 83.2-67.9 0-45.1-19.5-59-64.2-59h-44.2l.1 126.9zm350.1 173h-125.1v-10.7h40v-289.2h-40v-10.7h125.1v10.7h-40v289.2h40zm263.6-227.9h-10.7c-9.8-44.2-33.9-79-82.8-79-29.8 0-52.5 20.5-61.8 37.7-18.1 33.9-19.1 99.9-19.1 125.5 0 80 9.8 137.6 83.2 137.6 45.1 0 73.5-37.7 85.5-78.6h11.2v84.6H1617l-13-19.1c-21.9 18.6-47 26-73 26-86 0-134.4-74.8-134.4-164.1 0-91.6 70.7-160.4 136.2-160.4 27.9 0 46 8.8 68.3 24.7l15.8-14h7l.1 79.1zm270.1 61v-133h-36.3v-10.7h117.7v10.7h-36.3v289.2h36.3v10.7h-117.7v-10.7h36.3v-142.8h-133.9v142.8h36.3v10.7h-117.7v-10.7h36.3v-289.2h-36.3v-10.7h117.7v10.7h-36.3v133zm630.1-133h-35.8v-10.7H2613c87.9 0 145 59.5 145 152.5 0 53.9-20.5 94.4-48.4 124.1-29.7 30.7-73.4 34-97.6 34h-123.7v-10.7h35.8l.1-289.2zm45.1 289.2h45.5c53.9-.5 71.1-28.3 80.9-48.8 9.3-21.4 11.2-62.3 11.2-106.9 0-66-6.5-133.4-102.8-133.4h-34.9v289.1h.1zm224.1 10.7v-10.7h40.9v-289.2h-40.9v-10.7h235.7v75.8h-10.2c-7.9-55.3-36.7-65.1-79-65.1h-60.4v133.9c46.9 0 61.8-.5 68.3-49.7h10.2V1227h-10.2c-2.8-49.7-22.3-55.8-68.3-56.3v143.7h56.3c61.3 0 81.8-7.4 93.9-76.2h12.1l-6.1 86.9h-242.3zm324-299.9h-36.2v-10.7h90.6l132.1 225h.9v-214.3h-36.3v-10.7h86.1v10.7h-35.9V1332h-12l-174.4-297.5h-.9v279.9h35.8v10.7h-86v-10.7h36.2zm314.3 289.2h86c53.5 0 72.1-17.2 82.3-76.7h12.6l-5.1 87.4H3381V1306l179.5-280.8h-86c-45.6 0-53 14-68.8 64.6H3395l4.7-75.3h212v14.9l-180 285zm214.4 10.7v-10.7h40.9v-289.2h-40.9v-10.7h235.7v75.8h-10.2c-7.9-55.3-36.7-65.1-79-65.1h-60.5v133.9c47 0 61.8-.5 68.4-49.7h10.2V1227h-10.2c-2.8-49.7-22.3-55.8-68.4-56.3v143.7h56.3c61.4 0 81.8-7.4 93.9-76.2h12.1l-6 86.9h-242.3zm286.8 0v-10.7h38.1v-289.2h-38.1v-10.7h126v10.7h-42.8v289.2h83.2c38.1 0 56.2-46.5 61.9-76.2h8.8l-5.1 86.9h-232zM2176 1165.6l-3.6 2.1-4.1 2.8-3.9 3-3.7 3.2-1.8 1.7-3.4 3.6-3.1 3.8-3 4-2.7 4.2-2.5 4.3-2.2 4.4-1.9 4.5-1.6 4.5-.7 2.3-.6 2.3-.5 2.3-.4 2.3-.3 2.3-.2 2.3-.1 2.3-.1 2.3.1 3.9.3 3.8.4 3.8.6 3.7.8 3.6.9 3.5 1.1 3.4 1.3 3.3 1.4 3.2 1.6 3.1 1.7 2.9 1.8 2.8 2 2.7 2.1 2.6 2.2 2.4 2.4 2.3 2.5 2.2 2.6 2.1 2.7 2 2.8 1.8 2.9 1.7 3 1.6 3.1 1.5 3.2 1.4 3.2 1.2 3.3 1 3.4.9 3.4.7 3.4.5 3.5.4 3.5.2 3.6.1 4.2-.1 4.2-.4 4.2-.6 4.2-.9 4.2-1.1 4.2-1.4 4.2-1.6 4.2-1.9 4.1-2.2 4-2.5 3.9-2.8 3.8-3.1 3.6-3.4 3.6-3.7 3.4-4 4.4-5.6-94.8-99.5zm23.1-130.8h-1.8l-1.8.1-1.7.2-3.4.7-3.3 1-1.6.6-3.2 1.5-1.5.8-2.9 1.8-2.7 2.1-1.3 1.1-1.2 1.2-1.1 1.3-1.1 1.4-1 1.4-.9 1.5-.9 1.5-1.6 3.2-.7 1.7-.6 1.8-.5 1.9-.4 1.9-.3 2-.2 2-.1 2.1-.1 2.2.1 4.1.5 4.1.7 4.1 1 4.1 1.3 4 1.6 4 1.9 3.9 2.2 3.9 2.4 3.9 2.6 4 2.9 4 3.1 4.1 3.3 4.1 3.6 4.2 3.8 4.3 5.1 5.5 6.3-3.4 4.7-2.8 4.4-2.9 4-3 3.7-3.2 3.4-3.3 3.1-3.5 2.7-3.6 2.4-3.7 2.1-3.9 1.8-4 1.4-4.2 1.1-4.3.8-4.5.5-4.6.1-4.7-.2-5-.5-4.7-.9-4.5-1.2-4.2-1.6-3.9-2-3.6-2.3-3.4-2.7-3-3-2.7-3.3-2.3-3.6-2-3.9-1.6-4.1-1.3-4.4-.9-4.6-.5-4.4-.1zm7.4-16.2 3.6.1 3.6.2 3.5.3 3.4.5 3.3.6 3.2.8 3.1.9 3 1.1 3 1.2 2.8 1.3 2.8 1.4 2.6 1.5 2.5 1.5 2.4 1.7 2.3 1.7 2.2 1.8 2.1 1.9 1.9 2 1.8 2.1 1.7 2.1 1.6 2.2 1.4 2.3 1.3 2.4 1.2 2.5 1 2.5.9 2.5.8 2.6.6 2.6.5 2.7.3 2.7.2 2.8.1 2.9-.1 4.5-.5 4.6-.7 4.6-.5 2.3-1.2 4.7-.7 2.3-.9 2.3-1 2.3-1.1 2.3-1.3 2.4-1.4 2.4-1.5 2.4-1.7 2.4-1.8 2.3-2 2.3-2.2 2.3-2.4 2.3-2.5 2.3-2.7 2.3-2.8 2.3-3 2.3-3.2 2.3-3.5 2.3-3.7 2.2-3.9 2.2-4.2 2.2-4.4 2.2-7.2 3.4 82.6 87.2 4.3-6.9c1.4-2.4 2.8-4.9 4.1-7.4 1.4-2.6 2.8-5.3 4.1-7.9 1.3-2.7 2.6-5.5 3.8-8.2 1.1-2.7 2.3-5.5 3.4-8.3 1-2.8 2-5.5 2.9-8.3l1.8-5.5c1.4-4.5 2.7-9 3.8-13.6l.7-3.2 1.7-8.2 1.6-8.9.6-4.1.4-3.5.4-.7h-36.6v-10.7h88v10.7l-36.3.1-.9 4.2c-.5 4.6-1.2 9.1-1.8 13.6l-.7 4.5-.7 4.1-.7 3.3c-.8 3-1.6 6-2.4 8.9-.9 3.1-2 6.2-3 9.3-1.5 4.3-3.1 8.6-4.8 12.9-3 7.8-6.3 15.6-9.7 23.2l-3.1 6.4-3.2 6.2-3.4 5.9-2.6 4.3 57 59.6 23.8-.1-.1 10.6h-60.5c-.3 0-.5-.1-.6-.3l-39.5-40.9-5.7 6.4c-2.8 3-5.7 6.1-8.7 9l-4.5 4.2-2.2 2-2.3 2-2.4 1.9-2.5 1.9-2.5 1.8-2.6 1.7-5.4 3.3-2.8 1.5-2.9 1.4-3 1.4-3.1 1.3-3.2 1.2-3.3 1.1-3.4 1-3.5.9-3.6.8-3.7.7-3.9.6-4 .5-4.2.4-4.3.3-4.5.2-4.6.1-4.6-.1-4.5-.3-4.4-.5-4.3-.7-4.2-.9-4.1-1.1-4-1.3-3.9-1.4-3.8-1.6-3.7-1.7-3.6-1.9-3.5-2-3.3-2.1-3.2-2.2-3.1-2.4-3-2.5-2.8-2.6-2.7-2.7-2.5-2.9-2.4-3-2.2-3.1-2-3.2-1.9-3.3-1.8-3.4-1.5-3.5-1.3-3.6-1.1-3.6-.9-3.7-.7-3.8-.5-3.8-.3-3.9-.1-4 .1-3.6.2-3.5.3-3.5.4-3.4.5-3.4.7-3.3.8-3.3.9-3.2 1-3.2 1.1-3.1 1.3-3.1 1.4-3 1.5-3 1.6-2.9 1.7-2.9 1.9-2.8 2-2.8 2.1-2.8 2.3-2.7 2.4-2.7 2.6-2.7 2.7-2.6 2.8-2.6 2.9-2.6 3.1-2.6 3.2-2.5 3.4-2.5 3.5-2.5 3.7-2.4 3.8-2.4 3.9-2.3 6.3-3.6c-2.6-3.1-5.3-6.1-7.8-9.3-2.4-2.9-4.7-5.9-7-9l-3-4.2c-1.8-2.6-3.4-5.3-5.1-8.1l-2.1-3.9-1.8-3.9c-.8-1.9-1.5-3.9-2.2-5.9l-1.1-3.9-.9-4c-.3-2-.7-4.1-.9-6.1-.2-2.1-.4-4.3-.5-6.4l-.1-4.5.1-3.6.2-3.5.4-3.5.6-3.4.8-3.3.9-3.2 1.1-3.2 1.3-3.1 1.4-3 1.6-2.9 1.7-2.8 1.8-2.7 2-2.6 2.1-2.5 2.3-2.4 2.4-2.3 2.5-2.2 2.6-2.1 2.7-1.9 2.8-1.8 3-1.7 3.1-1.6 3.2-1.4 3.3-1.3 3.4-1.2 3.4-1 3.5-.9 3.6-.7 3.7-.5 3.8-.4 3.8-.2 3 .4z" shape-rendering="geometricPrecision"></path></svg>