<svg xmlns="http://www.w3.org/2000/svg" xml:space="preserve" style="enable-background:new -294 222 371 118" viewBox="-294 222 371 118"><path d="M-294 224.5H77V340h-371z" style="fill:#fff"></path><path d="M-184.4 259.8c-5.8 0-9.5 3-11.2 9.1-.5 1.8-.8 3.6-1 5.3h22.7c.3-9.6-3.2-14.4-10.5-14.4m164.4 0c-5.8 0-9.5 3-11.2 9.1-.5 1.8-.8 3.6-1 5.3h22.7c.3-9.6-3.1-14.4-10.5-14.4m-121.5-17.7c-1.7 0-3.2-.5-4.3-1.6-1.1-1-1.7-2.4-1.7-4s.6-3 1.7-4 2.6-1.6 4.3-1.6 3.2.5 4.3 1.6c1.1 1 1.7 2.4 1.7 4s-.6 3-1.7 4-2.5 1.6-4.3 1.6M77 222h-371v81.5h45.9c-2.6-.3-5.4-.7-8.4-1.3-1.4-.3-2.8-.7-4-1.1-.4-.1-.5-.3-.5-.5v-15.8c0-.3.2-.5.5-.5h4.6c.4.1.5.2.5.4l2.2 11.8c0 .1.1.2.2.3l.3.3c2.6 1.2 6.2 1.8 10.9 1.8 4.6 0 8.4-1 11.5-3 3.5-2.3 5.3-5.5 5.3-9.6 0-5.7-4.1-10.4-12.2-14l-7.3-3.2c-5.4-2.4-9.3-4.8-11.9-7.2-3.4-3.2-5.2-7.1-5.2-11.5s1.4-8.3 4.3-11.7c2.8-3.3 6.4-5.7 11-7.1 2.9-.9 6-1.3 9.2-1.3 4.3 0 8.7.5 13.2 1.5 1.2.3 2.6.6 4 1 .4.1.5.2.5.5V249c0 .3-.2.5-.5.5h-4.3c-.4 0-.5-.1-.5-.4l-2.2-11.8c0-.2-.2-.4-.5-.5-3.2-1.3-6.6-2-10.3-2-3.8 0-7.1 1-9.8 2.9-3 2.1-4.5 4.9-4.5 8.5 0 3.4 1.3 6.3 4 8.6 1.8 1.6 4.7 3.2 8.7 5l7.2 3.1c5.6 2.5 9.8 5 12.3 7.5 3.2 3.2 4.8 7.1 4.8 11.8 0 7-2.9 12.5-8.6 16.4-3.9 2.6-8.5 4.3-13.9 4.9h50.4c-5.5-.6-10-2.6-13.4-6.1-4.1-4.1-6.1-9.6-6.1-16.5 0-7 2-13 6-17.8 4.3-5.3 10.1-7.9 17.4-7.9 6.4 0 11.3 1.7 14.6 5.2 3.2 3.4 4.8 8.1 4.8 14.2 0 1.1-.1 2.2-.2 3.4 0 .3-.2.5-.5.5h-32c.1 5.7 1.6 10.3 4.2 13.6 3.1 3.9 7.5 5.8 13.3 5.8 4.6 0 9-1.2 13-3.6.1-.1.2-.1.3-.1h.1l.3.3 1.6 2.6c.1.3 0 .5-.3.7-5.2 3.3-10.4 5.2-15.7 5.8h25.6V299c0-.4.2-.6.6-.6l7.8-.7c.4 0 .5-.2.5-.5v-34.7c0-.3-.2-.5-.5-.5l-8-.9c-.4 0-.5-.2-.5-.5v-2.4c0-.3.1-.5.4-.5l13.4-2.1c.1 0 .4-.1.7-.1h3.1c.4 0 .5.2.5.5v41.2c0 .3.2.5.5.5l7.2.7c.4 0 .6.2.6.6v4.5h21.7c-2.1-.3-3.9-1.2-5.5-2.5-2.1-1.8-3.1-4.1-3.1-6.9v-31.7c0-.3-.2-.5-.6-.5h-6.4c-.3 0-.5-.2-.5-.5v-.5c0-.2.1-.4.4-.6l14.2-13.5c.3-.3.6-.5.9-.5h.5c.3 0 .5.2.5.6v9.6c0 .3.2.5.5.5h14.8c.4 0 .5.2.5.6v3.7c0 .4-.2.6-.5.6h-14.8c-.4 0-.5.2-.5.5v27.9c0 5 2.4 7.5 7.1 7.5 3.5 0 6.3-.8 8.4-2.5.1-.1.3-.2.4-.2h.1c.1 0 .3.1.4.2l1.4 2.6c.1.3 0 .5-.3.7-2.9 1.8-5.3 3-7.4 3.7-1.8.6-3.7.9-5.5 1.1h33.6c-2.1-.3-3.9-1.2-5.5-2.5-2.1-1.8-3.1-4.1-3.1-6.9v-31.7c0-.3-.2-.5-.6-.5h-6.4c-.3 0-.5-.2-.5-.5v-.5c0-.2.1-.4.4-.6l14.2-13.5c.3-.3.6-.5.9-.5h.5c.3 0 .5.2.5.6v9.6c0 .3.2.5.5.5h14.8c.4 0 .5.2.5.6v3.7c0 .4-.2.6-.5.6h-14.8c-.4 0-.5.2-.5.5v27.9c0 5 2.4 7.5 7.1 7.5 3.5 0 6.3-.8 8.4-2.5.1-.1.3-.2.4-.2h.1c.1 0 .3.1.4.2l1.4 2.6c.1.3 0 .5-.3.7-2.9 1.8-5.3 3-7.4 3.7-1.8.6-3.7.9-5.5 1.1h39.8c-5.5-.6-10-2.6-13.4-6.1-4.1-4.1-6.1-9.6-6.1-16.5 0-7 2-13 6-17.8 4.3-5.3 10.1-7.9 17.4-7.9 6.4 0 11.3 1.7 14.6 5.2 3.2 3.4 4.8 8.1 4.8 14.2 0 1.1-.1 2.2-.2 3.4 0 .3-.2.5-.5.5h-32c.1 5.7 1.6 10.3 4.2 13.6 3.1 3.9 7.5 5.8 13.3 5.8 4.6 0 9-1.2 13-3.6.1-.1.2-.1.3-.1h.1l.3.3 1.6 2.6c.1.3 0 .5-.3.7-5.2 3.3-10.4 5.2-15.7 5.8h25.8V299c0-.4.2-.6.6-.6l7.8-.7c.4 0 .5-.2.5-.5v-34.7c0-.3-.2-.5-.5-.5l-8-.9c-.4 0-.6-.2-.6-.5v-2.4c0-.3.1-.5.4-.5l13.4-2.1c.4-.1.6-.1.7-.1h3.1c.4 0 .5.2.5.5v9.7l5.9-6.5c2.5-2.8 5.2-4.2 7.9-4.2 1.1 0 2.5.3 4.2 1s2.9 1.4 3.7 2.1c.1.1.2.2.3.4.1.2 0 .4-.1.5l-5.5 7.4c-.3.3-.5.5-.6.5s-.2 0-.3-.1c-1.6-1.5-3.4-2.3-5.4-2.3-2.4 0-4.6 1-6.4 3l-3.3 3.6c-.3.3-.4.7-.4 1.1v24.9c0 .3.2.5.5.5l9.4.7c.4 0 .6.2.6.6v4.4H77V222M56.3 327.8c.1 0 .2-.1.2-.2 0-.4.1-.7.1-1.1 0-1.9-.5-3.4-1.4-4.4-1-1.1-2.4-1.6-4.3-1.6-2.1 0-3.9.8-5.2 2.5-1.2 1.5-1.8 3.4-1.8 5.6s.6 3.9 1.8 5.2c1.2 1.3 2.9 2 5.1 2 1.9 0 3.8-.6 5.7-1.9.1-.1.1-.1.1-.2l-.5-.8-.1-.1h-.1c-1.2.8-2.5 1.1-3.9 1.1-1.7 0-3-.6-3.9-1.8-.8-1.1-1.2-2.5-1.3-4.3h9.5zm-2.8-1.3h-6.7c0-.5.1-1.1.3-1.7.5-1.9 1.6-2.9 3.3-2.9 2.2.1 3.2 1.6 3.1 4.6m-19.8-13.8c-.1 0-.1.1-.1.2v.8c0 .1.1.2.2.2l2.6.3c.1 0 .2.1.2.2v6.6c-.9-.2-1.8-.3-2.4-.3-2.4 0-4.3.8-5.8 2.5-1.4 1.6-2.2 3.6-2.2 6 0 1.8.5 3.3 1.5 4.6 1.1 1.4 2.5 2.1 4.2 2.1 1.6 0 3.2-.6 4.8-1.9l.1 1.5c0 .1.1.2.2.2l4.9-.3c.1 0 .1-.1.1-.2v-.8c0-.1-.1-.2-.2-.2l-2.4-.3c-.1 0-.2-.1-.2-.2v-21.6c0-.1-.1-.2-.2-.2h-1.2l-4.1.8zm2.8 19.8-.2.2c-1 .6-2 .9-3.2.9-1.4 0-2.5-.6-3.2-1.8-.6-1-.9-2.2-.9-3.8 0-1.7.4-3.1 1.1-4.2.9-1.3 2.1-1.9 3.7-1.9.5 0 1 .1 1.6.2.5.1.8.3 1 .5l.1 9.9zm-17.2 0c-.4.4-.5.8-.5 1.4 0 .5.2 1 .6 1.3.4.4.8.6 1.3.6s.9-.2 1.3-.6.6-.8.6-1.3c0-.3 0-.5-.1-.8-.3-.8-.9-1.2-1.8-1.2-.5.1-1 .3-1.4.6m-7.8-10.7-1.8 2v-3.1c0-.1-.1-.2-.2-.2h-1l-4 .7c-.1 0-.1.1-.1.2v.8c0 .1.1.2.2.2l2.4.3c.1 0 .2.1.2.2v10.9c0 .1-.1.2-.2.2l-2.3.2c-.1 0-.2.1-.2.2v.8c0 .1.1.2.2.2h8.1c.1 0 .2-.1.2-.2v-.8c0-.1-.1-.2-.2-.2L10 334c-.1 0-.2-.1-.2-.2V326c0-.1 0-.3.1-.4l1-1.1c.5-.6 1.2-1 1.9-1 .6 0 1.1.2 1.6.7h.1l.2-.2 1.6-2.3v-.2l-.1-.1c-.2-.2-.6-.5-1.1-.7s-.9-.3-1.2-.3c-.8.1-1.6.6-2.4 1.4m-9.8 6c.1 0 .2-.1.2-.2 0-.4.1-.7.1-1.1 0-1.9-.5-3.4-1.4-4.4-1-1.1-2.4-1.6-4.3-1.6-2.1 0-3.9.8-5.2 2.5-1.2 1.5-1.8 3.4-1.8 5.6s.6 3.9 1.8 5.2c1.2 1.3 2.9 2 5.1 2 1.9 0 3.8-.6 5.7-1.9.1-.1.1-.1.1-.2l-.5-.8-.1-.1h-.1c-1.2.8-2.5 1.1-3.9 1.1-1.7 0-3-.6-3.9-1.8-.8-1.1-1.2-2.5-1.3-4.3h9.5zm-2.7-1.3h-6.7c0-.5.1-1.1.3-1.7.5-1.9 1.6-2.9 3.3-2.9 2.2.1 3.2 1.6 3.1 4.6m-19.5 6.3c0 .9.3 1.6.9 2.2s1.4.8 2.3.8c.8 0 1.7-.1 2.5-.4.6-.2 1.3-.6 2.2-1.2.1-.1.1-.1.1-.2l-.4-.8h-.3c-.6.5-1.5.8-2.5.8-1.4 0-2.1-.8-2.1-2.4v-8.8c0-.1.1-.2.2-.2h4.4c.1 0 .2-.1.2-.2v-1.2c0-.1-.1-.2-.2-.2h-4.4c-.1 0-.2-.1-.2-.2v-3c0-.1 0-.2-.1-.2h-.2c-.1 0-.2 0-.3.1l-4.2 4.3-.1.2v.2c0 .1 0 .1.1.1h1.9c.1 0 .2.1.2.2v10.1zm-11 0c0 .9.3 1.6.9 2.2s1.4.8 2.3.8c.8 0 1.7-.1 2.5-.4.6-.2 1.3-.6 2.2-1.2.1-.1.1-.1.1-.2l-.4-.8h-.3c-.6.5-1.5.8-2.5.8-1.4 0-2.1-.8-2.1-2.4v-8.8c0-.1.1-.2.2-.2h4.4c.1 0 .2-.1.2-.2v-1.2c0-.1-.1-.2-.2-.2h-4.4c-.1 0-.2-.1-.2-.2v-3c0-.1 0-.2-.1-.2h-.2c-.1 0-.2 0-.3.1l-4.2 4.3-.1.2v.2c0 .1 0 .1.1.1h1.9c.1 0 .2.1.2.2v10.1zm-4 2.5c.1 0 .2-.1.2-.2v-.8c0-.1-.1-.2-.2-.2l-2.1-.2c-.1 0-.2-.1-.2-.2v-12.9c0-.1-.1-.2-.2-.2h-1.1l-4 .7c-.1 0-.1.1-.1.2v.8c0 .1.1.2.2.2l2.4.3c.1 0 .2.1.2.2v10.9c0 .1-.1.2-.2.2l-2.3.2c-.1 0-.2.1-.2.2v.8c0 .1.1.2.2.2l7.4-.2zm-5.1-21.9c-.3.3-.5.7-.5 1.3 0 .5.2.9.5 1.3.3.3.8.5 1.3.5s.9-.2 1.3-.5c.3-.3.5-.8.5-1.3s-.2-.9-.5-1.3-.8-.5-1.3-.5-.9.2-1.3.5m-5.2 14.4c.1 0 .2-.1.2-.2 0-.4.1-.7.1-1.1 0-1.9-.5-3.4-1.4-4.4-1-1.1-2.4-1.6-4.3-1.6-2.1 0-3.9.8-5.2 2.5-1.2 1.5-1.8 3.4-1.8 5.6s.6 3.9 1.8 5.2c1.2 1.3 2.9 2 5.1 2 1.9 0 3.8-.6 5.7-1.9.1-.1.1-.1.1-.2l-.5-.8-.1-.1h-.1c-1.2.8-2.5 1.1-3.9 1.1-1.7 0-3-.6-3.9-1.8-.8-1.1-1.2-2.5-1.3-4.3h9.5zm-2.7-1.3h-6.7c0-.5.1-1.1.3-1.7.5-1.9 1.6-2.9 3.3-2.9 2.2.1 3.2 1.6 3.1 4.6m-12.9-1.4c.1 0 .2 0 .2-.1v-3.7c0-.1-.1-.2-.2-.2-1.2-.4-2.4-.6-3.5-.6-1.4 0-2.6.4-3.6 1.1-1.2.8-1.7 1.9-1.7 3.2 0 1.8 1.2 3.2 3.5 4.1l1.5.6c.4.2.7.3.9.4 1 .5 1.4 1.2 1.4 2.1 0 1.6-.9 2.4-2.8 2.4-.8 0-1.6-.2-2.3-.5l-.1-.2-.5-2.6c0-.1-.1-.1-.2-.1h-1c-.1 0-.2 0-.2.1v3.8c0 .1.1.2.2.2 1.5.5 2.8.8 3.9.8 1.5 0 2.8-.4 3.9-1.2 1.2-.9 1.8-2.1 1.8-3.5 0-1.7-1.2-3-3.6-4l-1.4-.6c-1.6-.6-2.4-1.5-2.4-2.5 0-.3.1-.7.2-.9.4-.8 1.2-1.2 2.4-1.2.7 0 1.3.1 1.8.4l.1.2.5 2.6c0 .1.1.1.2.1h1v-.2zm-12 2.6c.1 0 .2-.1.2-.2v-1.4c0-.1-.1-.2-.2-.2h-8.9c-.1 0-.2.1-.2.2v1.4c0 .1.1.2.2.2h8.9zm-16 7.7c0 .1.1.2.2.2l4.4-.6c.1 0 .1-.1.1-.2v-.6l-.2-.2-2.1-.6-.1-.2v-8.9c0-.8-.1-1.4-.4-1.9-.7-1.3-2.1-2-4.3-2-1.6 0-3.2.3-4.9.9-.1 0-.2.1-.2.2v3.7c0 .1.1.1.2.1h1c.1 0 .2 0 .2-.1l.5-2.4c0-.1.1-.2.2-.3.7-.3 1.5-.5 2.5-.5 1.7 0 2.5.9 2.5 2.6v2.5c-1.1.1-2.2.3-3.5.5-.6.1-1.1.3-1.7.6-1.8.8-2.8 2.2-2.8 4 0 .5.1 1 .3 1.4.6 1.4 1.7 2.1 3.4 2.1 1.6 0 3.1-.6 4.5-1.9l.2 1.6zm-.5-2.8c0 .1-.1.1-.2.2-.6.3-1 .5-1.3.6-.6.2-1.1.3-1.5.3-1.4 0-2.1-.7-2.1-2.1 0-1.3.6-2.2 1.7-2.5.4-.1.6-.2.8-.3.6-.2 1.4-.3 2.5-.4l.1 4.2zm-23.2 1.2c0 .1-.1.2-.2.2l-2.2.2c-.1 0-.2.1-.2.2v.8c0 .1.1.2.2.2h7c.1 0 .2-.1.2-.2v-.8c0-.1-.1-.2-.2-.2l-1.7-.2c-.1 0-.2-.1-.2-.2V328l.1-.1h.2l5.2 6v.1l-.1.1-1.3.1c-.1 0-.2.1-.2.2v.8c0 .1.1.2.2.2h7c.1 0 .2-.1.2-.2v-.8c0-.1-.1-.2-.2-.2l-1.9-.2-.1-.1-6.3-7.2v-.1l.1-.1 4.4-4 .1-.1 2.2-.2c.1 0 .2-.1.2-.2v-.8c0-.1-.1-.2-.2-.2h-6.2c-.1 0-.2.1-.2.2v.8c0 .1.1.1.2.2l1.7.1.1.1v.1l-4.9 4.5-.2.1-.1-.1v-14.7c0-.1-.1-.2-.2-.2h-1.2l-4.2.7c-.1 0-.1.1-.1.2v.8c0 .1.1.2.2.2l2.6.3c.1 0 .2.1.2.2v19.3zm-4.9 1.5c.1 0 .2-.1.2-.2v-.8c0-.1-.1-.2-.2-.2l-2.1-.2c-.1 0-.2-.1-.2-.2v-12.9c0-.1-.1-.2-.2-.2h-1.1l-4 .7c-.1 0-.1.1-.1.2v.8c0 .1.1.2.2.2l2.4.3c.1 0 .2.1.2.2v10.9c0 .1-.1.2-.2.2l-2.3.2c-.1 0-.2.1-.2.2v.8c0 .1.1.2.2.2l7.4-.2zm-5.1-21.9c-.3.3-.5.7-.5 1.3 0 .5.2.9.5 1.3.3.3.8.5 1.3.5s.9-.2 1.3-.5c.3-.3.5-.8.5-1.3s-.2-.9-.5-1.3c-.3-.3-.8-.5-1.3-.5s-.9.2-1.3.5m-21.2 8c-.1 0-.1.1-.1.2v.8c0 .1.1.2.2.2l2.4.3c.1 0 .2.1.2.2V334c0 .1-.1.2-.2.2l-2.3.2c-.1 0-.2.1-.2.2v.8c0 .1.1.2.2.2h7.4c.1 0 .2-.1.2-.2v-.8c0-.1-.1-.2-.2-.2l-2.1-.2c-.1 0-.2-.1-.2-.2v-10.2l.2-.1c1-.5 2.1-.8 3.4-.8 1.1 0 2 .3 2.4.9s.6 1.4.6 2.6v7.6c0 .1-.1.2-.2.2l-2.1.2c-.1 0-.2.1-.2.2v.8c0 .1.1.2.2.2h7.2c.1 0 .2-.1.2-.2v-.8c0-.1-.1-.2-.2-.2l-2.1-.2c-.1 0-.2-.1-.2-.2v-8.5c0-3.2-1.4-4.8-4.3-4.8-.5 0-1 0-1.4.1-1.4.3-2.7.9-3.6 1.6V321c0-.1-.1-.2-.2-.2h-1.1l-3.9.6zm-14.9 1.3c-1.3 1.4-2 3.3-2 5.5 0 2.3.6 4.1 1.9 5.5 1.3 1.4 3.1 2.1 5.4 2.1 2.2 0 4-.7 5.4-2.2 1.3-1.4 2-3.3 2-5.5 0-2.3-.6-4.2-1.9-5.5-1.3-1.4-3.1-2-5.4-2-2.2-.1-4 .6-5.4 2.1m8.7 1.5c.6 1.2.9 2.7.9 4.5 0 3.7-1.3 5.6-4 5.6-.8 0-1.6-.2-2.2-.6-1.7-1.1-2.5-3.2-2.5-6.3 0-1.5.3-2.8.8-3.7.7-1.2 1.7-1.8 3.2-1.8 1.8.1 3 .8 3.8 2.3m-37.9-2.7v.8c0 .1.1.2.2.2l2.4.3c.1 0 .2.1.2.2v10.9c0 .1-.1.2-.2.2l-2.3.2c-.1 0-.2.1-.2.2v.8c0 .1.1.2.2.2h7.2c.1 0 .2-.1.2-.2v-.8c0-.1-.1-.2-.2-.2l-1.9-.2c-.1 0-.2-.1-.2-.2v-10.2l.2-.1c1-.5 2.1-.8 3.1-.8 1.9 0 2.9 1.2 2.9 3.6v7.6c0 .1-.1.2-.2.2l-1.9.2c-.1 0-.2.1-.2.2v.8c0 .1.1.2.2.2h6.8c.1 0 .2-.1.2-.2v-.8c0-.1-.1-.2-.2-.2l-1.9-.2c-.1 0-.2-.1-.2-.2v-8.6c0-.6 0-1.1-.1-1.5.9-.6 2-.9 3.3-.9 2 0 3 1.2 3 3.6v7.4c0 .1-.1.2-.2.2l-1.9.2c-.1 0-.2.1-.2.2v.8c0 .1.1.2.2.2h7.1c.1 0 .2-.1.2-.2v-.8c0-.1-.1-.2-.2-.2l-2.1-.2c-.1 0-.2-.1-.2-.2v-8.4c0-3.2-1.4-4.8-4.2-4.8-1.8 0-3.6.7-5.2 2-.8-1.4-2-2.1-3.6-2.1s-3.2.6-4.8 1.8v-1.4c0-.1-.1-.2-.2-.2h-1.1l-4 .7v-.1m-6.9 11c-.4.4-.5.8-.5 1.4 0 .5.2 1 .6 1.3.4.4.8.6 1.3.6s.9-.2 1.3-.6c.4-.4.6-.8.6-1.3 0-.3 0-.5-.1-.8-.3-.8-.9-1.2-1.8-1.2-.6.1-1 .3-1.4.6m-19.2-1-3.7-9c-.1-.2 0-.2.1-.2l1.7-.2c.1 0 .1 0 .1-.1v-.8c0-.1-.1-.2-.2-.2h-6.9c-.1 0-.2.1-.2.2v.8l.1.1 1.9.2.1.1 5.4 13.1.1.1h.8l.1-.1 4.1-9.3 3.8 9.3.1.1h.8l.1-.1 5.4-13.1.1-.1 1.8-.2c.1 0 .2-.1.2-.2v-.8c0-.1-.1-.2-.2-.2h-5.3c-.1 0-.2.1-.2.2v.8l.1.1 1.7.2c.2 0 .2.1.1.2l-3.6 9-3.7-9c-.1-.2 0-.2.1-.2l1.7-.2c.1 0 .1 0 .1-.1v-.8c0-.1-.1-.2-.2-.2h-6.6c-.1 0-.2.1-.2.2v.8l.1.1 1.7.2.1.1.8 1.9.1.2-.1.2-2.3 6.9zm-25.6 0-3.7-9c-.1-.2 0-.2.1-.2l1.7-.2c.1 0 .1 0 .1-.1v-.8c0-.1-.1-.2-.2-.2h-6.9c-.1 0-.2.1-.2.2v.8l.1.1 1.9.2.1.1 5.4 13.1.1.1h.8l.1-.1 4.1-9.3 3.8 9.3.1.1h.8l.1-.1 5.4-13.1.1-.1 1.8-.2c.1 0 .2-.1.2-.2v-.8c0-.1-.1-.2-.2-.2h-5.3c-.1 0-.2.1-.2.2v.8l.1.1 1.7.2c.1 0 .2.1.1.2l-3.6 9-3.7-9c-.1-.2 0-.2.1-.2l1.7-.2c.1 0 .1 0 .1-.1v-.8c0-.1-.1-.2-.2-.2h-6.6c-.1 0-.2.1-.2.2v.8l.1.1 1.7.2.1.1.8 1.9.1.2-.1.2-2.3 6.9zm-25.6 0-3.7-9c-.1-.2 0-.2.1-.2l1.7-.2c.1 0 .1 0 .1-.1v-.8c0-.1-.1-.2-.2-.2h-6.9c-.1 0-.2.1-.2.2v.8l.1.1 1.9.2.1.1 5.4 13.1.1.1h.8l.1-.1 4.1-9.3 3.8 9.3.1.1h.8l.1-.1 5.4-13.1.1-.1 1.8-.2c.1 0 .2-.1.2-.2v-.8c0-.1-.1-.2-.2-.2h-5.3c-.1 0-.2.1-.2.2v.8l.1.1 1.7.2c.2 0 .2.1.1.2l-3.6 9-3.7-9c-.1-.2 0-.2.1-.2l1.7-.2c.1 0 .1 0 .1-.1v-.8c0-.1-.1-.2-.2-.2h-6.6c-.1 0-.2.1-.2.2v.8l.1.1 1.7.2.1.1.8 1.9.1.2-.1.2-2.3 6.9z"></path></svg>