<svg xmlns="http://www.w3.org/2000/svg" data-name="Ebene 2" viewBox="0 0 465.4 169"><g data-name="Ebene 1"><path d="M77 162c-13.3 0-24.8-2.4-34.5-7.1-9.7-4.8-17.6-11-23.9-18.8S7.7 120 4.6 111.2 0 93.8 0 85.7v-4.5c0-8.8 1.6-17.8 4.7-26.8S12.6 37.2 19 29.8c6.4-7.4 14.4-13.4 24-17.9s20.9-6.7 34-6.7 24.4 2.2 34 6.7 17.6 10.4 24 17.9c6.4 7.4 11.2 15.6 14.3 24.6s4.7 17.9 4.7 26.8v4.5c0 8.2-1.5 16.7-4.6 25.5-3.1 8.9-7.7 17.1-14 24.9s-14.2 14-23.9 18.8c-9.7 4.7-21.2 7.1-34.5 7.1m0-18.4c8.7 0 16.6-1.6 23.6-4.9s13-7.7 17.9-13.4c4.9-5.6 8.6-12 11.2-19.2 2.6-7.1 3.9-14.7 3.9-22.6 0-8.3-1.3-16.1-3.9-23.3-2.6-7.2-6.3-13.6-11.2-19.1s-10.9-9.8-17.9-13c-7-3.1-14.9-4.7-23.6-4.7S60.4 25 53.4 28.1s-13 7.4-17.9 13c-4.9 5.5-8.7 11.9-11.2 19.1-2.6 7.2-3.9 15-3.9 23.3s1.3 15.4 3.9 22.6c2.6 7.1 6.3 13.5 11.2 19.2 4.9 5.6 10.8 10.1 17.9 13.4 7 3.2 14.9 4.9 23.6 4.9M182.7 9.2h20v149.1h-20V9.2Zm16 131.1h89.2v18h-89.2v-18Z" style="fill:#1e1e1c"></path><path d="M464.9 84.5c0 15-9 30.1-27.2 32.2-19.5 2.4-22 4.7-24.9 25.5-3 14.9-16.1 26.3-31.9 26.3s-28.8-11.3-31.9-26.1c-2.7-21-5.3-23.3-25.7-26.3-14.9-3-26.3-16.1-26.3-31.9s11.3-28.9 26-31.9c21.7-3.3 23.3-5.1 26.1-25.5C352.1 11.9 365.2.5 381 .5s29.3 11 31.9 26.4c2.9 20 5.1 22.4 25.7 25.8 15 2.9 26.3 16 26.3 31.8ZM399.8 29c-1.5-8.5-9.4-15.1-18.7-15.1s-16.9 6.5-18.7 15.2c-3.7 26.4-10 32.2-36.9 36.4-8.6 1.9-15.1 9.6-15.1 18.8s6.5 16.9 15.2 18.7c25.9 3.8 33.1 10.5 36.6 37.2 1.9 8.5 9.6 14.9 18.7 14.9s16.9-6.5 18.7-15.2c3.7-26.5 10.9-33.5 36.6-36.5 9.8-1.1 15.4-9 15.4-18.9 0-9.2-6.5-16.9-15.3-18.7-26.2-4.3-32.8-11.1-36.5-36.8Z" style="fill:none;stroke:#020203;stroke-miterlimit:3.86"></path></g></svg>